<svg xmlns="http://www.w3.org/2000/svg" viewBox="0 0 2048 2048"><defs><style>.cls-1{fill:#aecff2;}.cls-2{fill:#e6eeff;}.cls-3,.cls-4{fill:none;stroke:#aecff2;}.cls-3{stroke-linecap:round;stroke-linejoin:round;stroke-width:8px;}.cls-4{stroke-miterlimit:10;stroke-width:10px;}.cls-5{fill:#291d21;}.cls-6{fill:#eaa93f;}.cls-7{fill:#4c7cf6;}.cls-8{fill:#07a592;}</style></defs><title>Free Man Exercise Illustration (SVG)</title><g id="scene"><path class="cls-1" d="M686,440c-77.12-58.09-122.85-111-141.42-134.61V-1H525.13v306.4C506.57,329,460.83,381.94,383.72,440H496A38,38,0,0,0,572,440H686Z"/><path class="cls-1" d="M1893,440c-77.12-58.09-122.85-111-141.42-134.61V-1h-19.45v306.4c-18.56,23.58-64.3,76.52-141.41,134.61H1703a38,38,0,0,0,75.91,0h114Z"/><path class="cls-1" d="M793.65,1519.43c-10-19.13-81.15-82-125.6-76.26-36.48,4.75-127.14,82.14-157,109.7,11-21.32,34.61-71.71,45.38-92.65,25.14-48.93,52-159,49.76-156.84-39.67,38.08-73.69,83-91.75,135.44-4.18,12.16-8.4,29.33-12.28,47.46a276.5,276.5,0,0,0-11-54.48c-11.05-34.67-31.59-63.09-54.48-90.85-27.2-33-54.7-65.66-87.92-92.8-3.87-3.15-9.16.69-6.93,5.34,36.11,74.81,72.58,150.56,91.71,231.82.3,1.28.52,2.56.81,3.84-9.94-24.92-23.44-49.75-42.27-67C341.82,1376,229.18,1366.48,191.44,1377c-3.95,1.11,108.76,24.6,169.19,78.63,21.74,19.43,63.92,110.31,67.21,116.09-9.06-11.19-69.74-81-101.17-86.31-122-20.46-202.3,61.91-201.12,63.84-.21,2.79,99.63-27.87,189.78-15.27,71.09,10,98.57,62.89,139.36,94.18,4.6,15.71,11.83,30.24,23.7,42.77,2.86,3,6.92.49,7.39-2.7a4.56,4.56,0,0,0,4.92-2.88,154.18,154.18,0,0,0,4.83-15,403.59,403.59,0,0,1,270.05-46.7c4.26.76,7.42-4,4.29-7.37-36.48-39.54-92.33-58.13-145.09-45.41-38.84,9.37-80.9,28.24-115.33,53.93,6.75-11.64,13.67-23.2,23.48-32.59C686.31,1425.11,795.73,1523.39,793.65,1519.43Z"/><polygon class="cls-2" points="558.66 1829.98 395.39 1829.98 348.47 1610.71 605.59 1610.71 558.66 1829.98"/><polygon class="cls-1" points="437.39 1829.98 395.39 1829.98 348.47 1610.71 389.73 1610.71 437.39 1829.98"/><path class="cls-1" d="M1922.42,1451.78c-12.22-23.29-98.83-99.92-153-92.87-44.43,5.78-154.84,100-191.17,133.59,13.36-26,42.16-87.33,55.27-112.84,30.61-59.58,63.33-193.62,60.59-191-48.3,46.37-89.74,101.06-111.73,164.94-5.1,14.8-10.22,35.72-15,57.79-2.41-22.49-6.55-44.75-13.43-66.34-13.46-42.22-38.47-76.83-66.34-110.64-33.13-40.17-66.62-80-107.08-113-4.71-3.84-11.16.84-8.43,6.51,44,91.1,88.39,183.35,111.68,282.31.36,1.56.64,3.12,1,4.68-12.1-30.35-28.55-60.59-51.48-81.62-61.22-56.16-198.4-67.77-244.36-55-4.81,1.34,132.45,30,206,95.75,26.48,23.66,77.84,134.34,81.85,141.38-11-13.63-84.94-98.7-123.21-105.12-148.56-24.91-246.37,75.4-244.93,77.76-.26,3.39,121.33-34,231.12-18.6,86.58,12.12,120,76.59,169.71,114.7,5.61,19.13,14.41,36.82,28.87,52.09,3.48,3.68,8.43.59,9-3.29a5.55,5.55,0,0,0,6-3.51,184.28,184.28,0,0,0,5.88-18.27,491.54,491.54,0,0,1,328.88-56.87c5.19.92,9-4.83,5.23-9-44.43-48.16-112.45-70.8-176.7-55.31-47.3,11.41-98.52,34.39-140.45,65.68,8.21-14.18,16.65-28.25,28.59-39.69C1791.7,1336.91,1925,1456.6,1922.42,1451.78Z"/><polygon class="cls-2" points="1636.24 1829.98 1437.4 1829.98 1380.26 1562.94 1693.39 1562.94 1636.24 1829.98"/><polygon class="cls-1" points="1488.54 1829.98 1437.4 1829.98 1380.26 1562.94 1430.51 1562.94 1488.54 1829.98"/><line class="cls-3" x1="1724.06" y1="1833" x2="173.06" y2="1833"/><path class="cls-4" d="M1205,163h0a284,284,0,0,1,284,284v721a0,0,0,0,1,0,0H921a0,0,0,0,1,0,0V447A284,284,0,0,1,1205,163Z"/></g><g id="illustration"><path class="cls-5" d="M1194.72,425.3c.94-2.74,1.73-5.13,2.4-6.92,11-29.95,14.39-76.82-20.81-87.94-42.2-13.32-37.51,54.64-38.94,73.63-1.64,22-4.6,30.46,5.36,50.54,3.76,7.55,7.84,14.38,16.76,13.19C1169.38,466.47,1190.29,438.37,1194.72,425.3Z"/><polygon class="cls-6" points="1172.71 447.58 1100.41 444.43 1096.48 534.35 1168.8 537.5 1172.71 447.58"/><path class="cls-5" d="M1148.48,496.4c7.91-14.91,12.92-30.11,12.55-49.32l-60.62-2.65L1097,522.58C1116.17,520.51,1140,512.28,1148.48,496.4Z"/><path class="cls-5" d="M1103.87,341.76c15.28-3.7,10.39,8.49,6,23.05l-21.35,9.46c-18,7.78-8,18.86-10.29,34.43-1,6.4-3.41,12.63-4.72,18.85-4.06-6.55-10.73-37.7-10.91-45.16,0,0-5.34-32.29,16.73-39C1079.33,343.4,1094.41,340.49,1103.87,341.76Z"/><path class="cls-6" d="M1172.71,447.59c-4.86,16.11-17.17,34.93-31.08,45.19-13.6,10-28,15.8-42.86,5.54-11.8-8.17-20.07-20.85-25.2-33.88-11.86-30-8.43-73.21,9-99.69,19.2-29.06,61.23-26.53,79.87,2.51C1177.64,390.91,1180.59,421.6,1172.71,447.59Z"/><path class="cls-5" d="M1105.25,446.11c-3.55,0-7.18-.85-9-3-.87-1-2-3.28-.07-6.53,12.68-21.07,8.56-24.22,5.55-26.51a14.34,14.34,0,0,1-1.94-1.69,2,2,0,0,1,.17-2.77,2,2,0,0,1,2.76.16,10.25,10.25,0,0,0,1.38,1.18c5.24,4,8.83,9.42-4.56,31.65-.82,1.36-.44,1.82-.27,2,1.43,1.72,7.4,2.17,11,.82a2,2,0,0,1,1.37,3.67A19.07,19.07,0,0,1,1105.25,446.11Z"/><path class="cls-5" d="M1188.21,399c.53,4.23,0,10.25,1.46,14.26-1.72-4.66-8.72-12.75-15.45-5.64-2.81,3-3.84,16.75-5.06,20.5-1.63,5-2.78,3.2-7.19,3.56-1.55-14.23-.63-55-15.87-55.28-4.24-.06-9.94,2.81-14.1,3.73a137.06,137.06,0,0,1-31.38,3.63c-13.84-.21-24.15-3.75-31-10.68l-.31-.31c-6.2-6.35-12-17.54-10.15-30.49.21-1.44,2.45-15.72,14.87-24.3,5.36-3.7,10.93-5.19,17-6,26.63-3.57,34.67,9.58,64,11,18.39.89,28.13-3.66,34.85,3.67,5.74,6.26,4.7,16.33,4.69,17.6-.07,8.31-7.2,13.56-10.18,20.62C1180.79,373.32,1187,389.18,1188.21,399Z"/><path class="cls-5" d="M1090.93,419.82c.23,3.32-1.21,6.12-3.21,6.25s-3.8-2.46-4-5.78,1.22-6.12,3.22-6.26S1090.72,416.49,1090.93,419.82Z"/><path class="cls-5" d="M1134.15,417c.22,3.31-1.22,6.12-3.2,6.25s-3.8-2.45-4-5.78,1.19-6.13,3.21-6.25S1133.94,413.65,1134.15,417Z"/><path class="cls-5" d="M1106.49,461.46a2,2,0,0,1-.29-3.91c5.55-.86,7.29-2.47,7.76-3.67a2,2,0,1,1,3.65,1.45c-1.26,3.16-4.79,5.16-10.81,6.1A1.55,1.55,0,0,1,1106.49,461.46Z"/><path class="cls-6" d="M1194.69,418.38c1.11,9.17-2.88,20.13-10.73,24.83-10.65,6.38-16.08-3.44-17.15-13.51-.88-8.1,1.18-22.47,10.06-26.33C1185.26,399.73,1193.77,410.84,1194.69,418.38Z"/><path class="cls-5" d="M1179,437.68a2,2,0,0,1-1.83-1.28c-4.35-11.61-2.72-23.09,3.83-27.29a2,2,0,1,1,2.12,3.3c-4.85,3.11-5.86,13-2.29,22.62a2,2,0,0,1-1.14,2.53A2.09,2.09,0,0,1,1179,437.68Z"/><path class="cls-5" d="M1177.35,422.06a2,2,0,0,1-1.57-.79,2,2,0,0,1,.4-2.74c3.13-2.35,8.29-1.85,12-.6a2,2,0,0,1-1.24,3.73c-2.82-.94-6.67-1.34-8.45,0A2,2,0,0,1,1177.35,422.06Z"/><path class="cls-6" d="M1099.28,1144.4H973.83c4.12,113.22,28.73,348.26,45.77,600.08,2,30.2,32.78,0,32.78,0,29.86-188.45,22.43-360.93,22.43-360.93Z"/><path class="cls-6" d="M1232,1144.4H1106.58c4.11,113.22,28.73,348.26,45.78,600.08,2,30.2,32.76,0,32.76,0,29.86-188.45,22.47-360.93,22.47-360.93Z"/><rect class="cls-7" x="1425.86" y="378.09" width="110.48" height="21.35"/><path class="cls-7" d="M1426.31,419.55a8.74,8.74,0,0,1-8.75,8.75h-30.15a8.76,8.76,0,0,1-8.76-8.75V358a8.76,8.76,0,0,1,8.76-8.75h30.15a8.75,8.75,0,0,1,8.75,8.75Z"/><path class="cls-7" d="M1584,419.55a8.76,8.76,0,0,1-8.76,8.75h-30.15a8.75,8.75,0,0,1-8.75-8.75V358a8.76,8.76,0,0,1,8.75-8.75h30.15A8.76,8.76,0,0,1,1584,358Z"/><rect class="cls-7" x="786" y="342.73" width="110.47" height="21.35"/><path class="cls-7" d="M786.44,384.19a8.75,8.75,0,0,1-8.75,8.75H747.54a8.76,8.76,0,0,1-8.76-8.75V322.61a8.75,8.75,0,0,1,8.76-8.74h30.15a8.74,8.74,0,0,1,8.75,8.74Z"/><path class="cls-7" d="M944.12,384.19a8.76,8.76,0,0,1-8.76,8.75H905.21a8.75,8.75,0,0,1-8.75-8.75V322.61a8.74,8.74,0,0,1,8.75-8.74h30.15a8.75,8.75,0,0,1,8.76,8.74Z"/><polygon class="cls-1" points="1187.01 1799.6 1154.23 1800.22 1153.15 1743 1185.92 1742.36 1187.01 1799.6"/><path class="cls-7" d="M1196.38,1829l-126.24,2.28c1.22-14.79,12.59-18.4,12.59-18.4l36-12.11,32.27-20.6,12.58,5.6s2.49-.52.17,5.64c0,0,15.77,2.79,23.06-.69l9.53,38.28"/><polygon class="cls-5" points="1196.54 1834.68 1070.31 1837 1070.19 1831.14 1196.42 1828.82 1196.54 1834.68"/><polygon class="cls-1" points="1052.34 1801.74 1019.56 1801.71 1019.6 1744.48 1052.38 1744.49 1052.34 1801.74"/><path class="cls-7" d="M1061.14,1831.31l-126.28-.21c1.52-14.75,13-18.13,13-18.13l36.28-11.41,32.67-20,12.45,5.83s2.51-.47.08,5.64c0,0,15.7,3.11,23-.22l8.79,38.45"/><polygon class="cls-5" points="1061.16 1837 934.92 1836.83 934.92 1830.98 1061.18 1831.14 1061.16 1837"/><path class="cls-8" d="M981.43,1026.07c16.93,15,39.9,21.63,61.76,25.91,32.87,6.43,68,10.82,101.6,9.6,25.81-.92,54.35-4.65,76-20.06a76.13,76.13,0,0,0,26.24-32.61c-11.49-82.56-41.35-162.71-59.87-184.51-107.63,14.68-164.85-1.82-164.85-1.82C997.19,867.17,975,931,969.77,1013.66A105.42,105.42,0,0,0,981.43,1026.07Z"/><path class="cls-8" d="M1249.43,1174.23c9.49-133.1-2.42-162.36-2.42-162.36s-162.39-45.31-148,152.79c0,0-.15,13.27.15,33.57,0,0,28.22,3.62,70.15-5.22l21.27-37.36,19.53,29.63S1232,1186.38,1249.43,1174.23Z"/><path class="cls-8" d="M1106.36,1198.32l13.71-124.18c-20-97.39-150.3-60.48-150.3-60.48s-4.66,44.17-1.79,170.06C968,1183.72,1009.94,1199.07,1106.36,1198.32Z"/><path class="cls-6" d="M1052.26,627.27l-213.8-2s-33.9-14.38-24-50.63c0,0-1.26-12.68,85.09-16.88l146-14.43s104.48,4.94,64.71,70C1110.28,613.31,1092.63,633.13,1052.26,627.27Z"/><path class="cls-6" d="M1052.28,789.83C1017.25,663.48,1043,549,1043,549c36-10.79,65.54-22.8,65.54-22.8l56.92,6.58s55.62,20.54,99.61,48.13l-87.13,223.44Z"/><path class="cls-6" d="M820.54,610.08S791,570.58,808.17,504.7l29.08-123.35,18.42-.34,9.17,195S860.47,614.9,820.54,610.08Z"/><path class="cls-6" d="M1272.63,573.58l180.08,37.34s27.49,9.63,27.8,34.68c0,0,5.56,25.54-49.53,19.15l-170.67-7.35s-75.67-8.69-61.88-64.43C1198.43,593,1226.48,564.11,1272.63,573.58Z"/><path class="cls-6" d="M1473.58,660.37s34.71-35,26.78-102.67l-11.81-153.24-18.19-2.88-36,219S1433.37,659.64,1473.58,660.37Z"/><path class="cls-6" d="M1470.27,426.87c2.64,2.61,6.59,4.51,10.3,3.64,8.4-1.93,14.69-11.82,19-18.48,5.46-8.49,14.48-19,10.71-29.88-.58-1.68-2.12-3.13-3-4.67-1.84-3.25-.15-5.47-3.84-6.91-2.1-.82-5.62-5.35-7.66-5.47s-6.21-5.05-8.07-5.31c-11.26-1.58-18.41-1.82-21.2,2.88-1.68,2.83-7.06,15.72-12.81,18.2,0,0-5.19,3.55.38,17.38Z"/><path class="cls-6" d="M857.9,385.16c-2.25,2.95-5.9,5.37-9.7,5-8.58-.74-16.19-9.66-21.38-15.67-6.58-7.63-17-16.8-14.77-28.09.34-1.73,1.68-3.38,2.35-5,1.36-3.47-.63-5.44,2.83-7.37,2-1.11,4.82-6.08,6.84-6.49s5.44-5.85,7.23-6.38c11-3.14,18-4.36,21.41-.09,2,2.57,9.19,14.58,15.21,16.23,0,0,5.64,2.79,2,17.25Z"/><path class="cls-7" d="M1251,572a231.5,231.5,0,0,0-82-39c-2.71,37.42-31,58.67-49,55-15.75-3.21-30.78-27-27.78-56.75-7.57-.42-63.26,7.81-67.22,13.75-13.21,110.59-55.79,422.41-69,533,187,25,128-96,316-54"/><polygon class="cls-5" points="1117.07 1042.29 1107 1198 1101.06 1053.12 1117.07 1042.29"/></g></svg>