<svg xmlns="http://www.w3.org/2000/svg" xmlns:xlink="http://www.w3.org/1999/xlink" width="1200" height="1600" viewBox="0 0 1200 1600" id="football-player"><defs><path id="a" d="M177.934,78.36 C176.333,61.42 153.738,41.88 131.413,27.08 C104.141,9.01 71.658,3.44 38.971,2.01 L9.201,0.71 C6.198,0.42 3.568,2.71 3.436,5.73 L0.319,77.11 C0.151,80.97 3.145,84.24 7.007,84.41 L170.564,91.55 C174.558,91.73 177.852,82.36 177.934,78.36 Z"></path><path id="c" d="M2.35477014,217.81 C-3.49262986,201.84 8.48677014,174.47 22.2673701,151.5 C39.1021701,123.45 66.0231701,104.44 94.9111701,89.08 L121.22117,75.09 C123.80917,73.54 127.16817,74.47 128.58517,77.13 L162.12917,140.22 C163.94417,143.64 162.64817,147.87 159.23517,149.69 L14.6851701,226.55 C11.1560701,228.42 4.14897014,221.39 2.35477014,217.81 Z"></path><path id="e" d="M160.849213,62.7509831 C162.561213,30.0709831 189.009213,4.1439831 221.715213,3.0809831 L301.307213,0.493983102 C307.643213,0.287983102 313.986213,0.619983102 320.266213,1.4869831 L399.151213,12.3799831 C431.567213,16.8559831 455.160213,45.4059831 453.447213,78.0849831 L436.602213,399.507983 C436.515213,401.161983 435.104213,402.432983 433.449213,402.346983 L146.842213,387.325983 C145.188213,387.239983 143.917213,385.827983 144.004213,384.172983 L160.849213,62.7509831 Z"></path><path id="g" d="M0.0177333664,177.197 C0.0177333664,79.3339 79.3517334,0 177.214733,0 C275.078733,0 354.412733,79.3339 354.412733,177.197 L354.412733,298.46 C354.412733,396.323 275.078733,475.657 177.214733,475.657 C79.3517334,475.657 0.0177333664,396.323 0.0177333664,298.46 L0.0177333664,177.197 Z"></path></defs><g fill="none" fill-rule="evenodd"><g transform="translate(315 134)"><g transform="translate(46.745 806)"><g transform="translate(51.255 326.997)"><circle cx="99.5" cy="99.503" r="99.5" fill="#FFF" fill-rule="nonzero"></circle><path fill="#383535" d="M4.824,68.9326201 C21.684,16.7326201 77.865,-12.0373799 130.075,4.82262013 C182.273,21.6826201 211.037,77.8626201 194.176,130.07262 C177.316,182.28262 121.135,211.03262 68.925,194.18262 C16.727,177.32262 -12.0372,121.13262 4.824,68.9326201 Z M146.984,46.0926201 L118.061,55.5426201 L111.175,76.8426201 L126.456,97.8026201 L147.737,99.0526201 L167.028,75.5126201 L184.143,82.2026201 C179.552,59.9726201 166.322,40.0726201 146.96,27.3226201 L146.984,46.0926201 Z M92.953,28.6326201 L104.08,13.2526201 C80.829,12.0326201 58.296,20.3026201 41.423,35.5826201 L59.718,40.4126201 L61.442,70.7826201 L79.178,82.1926201 L104.176,74.0126201 L110.882,53.2226201 L92.953,28.6326201 Z M19.57,132.23262 L30.053,117.10262 L30.053,117.09262 L59.195,125.85262 L74.853,113.94262 L74.804,88.3326201 L57.36,77.1126201 L27.041,85.7226201 L17.068,73.5326201 C10.751,93.5326201 12.148,114.16262 19.57,132.23262 Z M72.934,181.79262 C63.386,178.71262 54.809,174.04262 47.254,168.28262 L64.381,159.92262 L63.749,131.84262 L79.189,120.11262 L104.286,128.21262 L109.971,146.86262 L91.641,171.15262 L101.917,185.84262 C92.345,186.12262 82.554,184.90262 72.934,181.79262 Z M145.635,172.56262 L145.635,156.50262 L117.186,144.65262 L111.282,125.31262 L125.761,105.30262 L147.299,106.57262 L163.722,132.19262 L181.191,127.62262 C175.377,144.50262 164.847,158.48262 151.515,168.51262 C149.61,169.94262 147.649,171.29262 145.635,172.56262 Z"></path></g><path fill="#EBBAAA" fill-rule="nonzero" d="M88.1624422 178.697448C89.6715938 177.434929 91.4872766 176.006524 94.0287402 174.07505 95.0909828 173.267761 100.440344 169.244164 102.02882 168.035886 109.962273 162.001288 116.019944 157.024748 122.226139 151.190677 129.026198 144.798351 135.239945 138.01424 140.983728 130.533964 153.428893 114.326308 150.378791 91.0986068 134.171134 78.6534421 117.963478 66.2082774 94.735777 69.2583795 82.2906122 85.4660359 79.0701038 89.6601864 75.537496 93.5170545 71.541657 97.2733024 67.5307382 101.043726 63.2907926 104.526956 57.2283159 109.138391 55.8478409 110.188453 50.5151629 114.199502 49.2531417 115.158619 45.871566 117.728566 43.2289925 119.807489 40.6802771 121.939682 31.327187 129.76425 24.403268 137.398347 19.184308 147.08221 12.5295847 159.430155 10.052888 173.176242 11.7977868 187.860297 14.5918418 211.37344 28.0399228 237.560724 54.5674546 274.559504 66.4744397 291.166549 89.5896286 294.976701 106.196674 283.069716 122.803719 271.16273 126.613871 248.047542 114.706886 231.440496 103.880804 216.34102 96.1749524 204.158423 91.2319495 194.532974 88.1102458 188.454118 86.3510549 183.930402 85.6232889 180.944606 86.2922211 180.305754 87.1316641 179.559772 88.1624422 178.697448zM294.022535 173.496407C300.166538 203.192425 306.215374 247.196039 309.624904 289.474215 313.593835 338.688962 313.775685 381.726884 309.627039 410.76741 306.737159 430.996568 320.793422 449.738252 341.02258 452.628131 361.251738 455.518011 379.993422 441.461748 382.883301 421.23259 387.960373 385.693089 387.757766 337.742667 383.385436 283.525785 379.740936 238.333978 373.280036 191.332706 366.487806 158.503593 362.347654 138.492861 342.769495 125.627213 322.758763 129.767364 302.748031 133.907516 289.882383 153.485675 294.022535 173.496407z"></path><polygon fill="#122B42" fill-rule="nonzero" points="237.255 111 108.255 40 24.255 129 158.255 202"></polygon><polygon fill="#395875" fill-rule="nonzero" points="176.255 182 41.255 110 22.255 130 158.255 203"></polygon><ellipse cx="242.755" cy="59" fill="#122B42" fill-rule="nonzero" rx="134.5" ry="59"></ellipse><polygon fill="#122B42" fill-rule="nonzero" points="247.255 111 387.255 25 417.255 225 267.739 247"></polygon><polygon fill="#395875" fill-rule="nonzero" points="263.739 222 414.255 200 418.255 225 267.739 247"></polygon><g transform="translate(302.255 329)"><path fill="#E86B43" fill-rule="nonzero" d="M150.395 166.66L171.375 167.58 170.786 181.06C170.533 186.86 165.631 191.35 159.838 191.09 154.044 190.84 149.553 185.94 149.806 180.15L150.395 166.66zM122.421 165.44L143.401 166.35 142.812 179.84C142.559 185.63 137.658 190.13 131.864 189.87 126.071 189.62 121.579 184.72 121.832 178.93L122.421 165.44zM40.499 161.86L61.479 162.78 60.891 176.26C60.638 182.06 55.736 186.55 49.943 186.3 44.149 186.04 39.658 181.14 39.911 175.35L40.499 161.86zM68.473 163.08L89.453 164 88.864 177.49C88.611 183.28 83.709 187.77 77.916 187.52 72.122 187.26 67.631 182.36 67.884 176.57L68.473 163.08zM12.526 160.64L33.506 161.56 32.917 175.04C32.664 180.84 27.763 185.33 21.969 185.08 16.176 184.82 11.684 179.92 11.937 174.13L12.526 160.64z"></path><polygon fill="#E86B43" fill-rule="nonzero" points="8 0 85 0 85 55.5 81.5 100 6 100 8.5 55.5"></polygon><g transform="translate(0 88)"><mask id="b" fill="#fff"><use xlink:href="#a"></use></mask><use fill="#091928" fill-rule="nonzero" xlink:href="#a"></use><path fill="#E86B43" fill-rule="nonzero" d="M54.845746,17.9320188 C68.5672398,19.377965 79.5736912,22.5852796 89.3085187,27.6105955 C97.0702796,31.6173742 103.271192,36.1683315 112.87475,44.3776206 C113.50094,44.9128988 114.142942,45.4639073 114.993381,46.19543 C114.955691,46.1630108 116.649819,47.6208698 117.131436,48.0347588 C118.889074,49.5452259 120.196231,50.6596583 121.50513,51.7591785 C130.03026,58.9205776 137.00632,63.9697763 145.264831,68.5593177 C146.100057,69.0231109 146.97763,69.5184634 147.997754,70.1006373 C148.511251,70.3936851 149.032123,70.6922187 149.748756,71.1038737 C160.322961,77.1780036 164.230854,79.1508031 169.173873,80.2999523 C176.760953,82.0637907 182.488387,79.3407342 185.095103,71.6425397 L178.464897,69.3974603 C177.079778,73.4880186 175.012852,74.4707196 170.758957,73.4817774 C166.77834,72.5563668 163.08469,70.6917221 153.235449,65.0340324 C152.513603,64.6193833 151.987649,64.3179364 151.46734,64.0210013 C150.425263,63.426299 149.524855,62.9180575 148.66413,62.440105 C140.8552,58.1004109 134.218952,53.2971654 126.007582,46.3993344 C124.722451,45.3197807 123.433265,44.2206696 121.693799,42.7258184 C121.214282,42.3137343 119.522082,40.8575341 119.558179,40.8885838 C118.702751,40.1527689 118.055784,39.5974997 117.423153,39.0567153 C107.442869,30.5253945 100.868829,25.7005924 92.5194675,21.3904823 C81.9697006,15.9444782 70.089443,12.4885502 55.4691777,10.958998 L55.257549,10.943326 L2.308549,8.63332604 L2.003451,15.626674 L54.845746,17.9320188 Z" mask="url(#b)"></path><polygon fill="#FFF7F5" fill-rule="nonzero" points="110.741 64.764 91.922 98.974 105.94 106.686 124.759 72.476" mask="url(#b)"></polygon><polygon fill="#FFF7F5" fill-rule="nonzero" points="90.844 45.685 61.102 96.435 74.906 104.525 104.648 53.775" mask="url(#b)"></polygon><polygon fill="#FFF7F5" fill-rule="nonzero" points="68.5 28.806 34.87 88.356 48.802 96.224 82.432 36.674" mask="url(#b)"></polygon></g></g><g transform="translate(0 181)"><path fill="#E86B43" fill-rule="nonzero" d="M27.3401701 206.23L8.79827014 216.09 15.1360701 228.01C17.8585701 233.13 24.2162701 235.07 29.3364701 232.35 34.4566701 229.63 36.4004701 223.27 33.6779701 218.15L27.3401701 206.23zM52.0626701 193.08L33.5207701 202.94 39.8586701 214.86C42.5810701 219.98 48.9388701 221.93 54.0591701 219.2 59.1791701 216.48 61.1231701 210.12 58.4001701 205L52.0626701 193.08zM124.46417 154.59L105.92217 164.44 112.26017 176.36C114.98317 181.48 121.34017 183.43 126.46117 180.71 131.58117 177.98 133.52517 171.63 130.80217 166.51L124.46417 154.59zM99.7421701 167.73L81.2001701 177.59 87.5381701 189.51C90.2601701 194.63 96.6181701 196.57 101.73817 193.85 106.85817 191.13 108.80217 184.77 106.08017 179.65L99.7421701 167.73zM149.18717 141.44L130.64517 151.3 136.98317 163.22C139.70517 168.34 146.06317 170.28 151.18317 167.56 156.30317 164.84 158.24717 158.48 155.52517 153.36L149.18717 141.44z"></path><polygon fill="#E86B43" fill-rule="nonzero" points="18.255 34 87.255 0 118.255 58 137.835 100.7 74.255 129 43.255 79"></polygon><mask id="d" fill="#fff"><use xlink:href="#c"></use></mask><use fill="#091928" fill-rule="nonzero" xlink:href="#c"></use><path fill="#E86B43" fill-rule="nonzero" d="M134.140224,85.4503679 L130.854116,79.2696321 L84.0581162,104.149632 L83.8739742,104.254811 C70.9477257,112.166801 61.537952,120.666037 54.262195,130.500992 C48.6135679,138.136485 45.0300148,145.004094 39.2458909,158.099064 C31.5139354,175.603828 28.4920747,181.602606 21.9173357,190.840529 C21.0992318,191.990714 20.305179,193.130103 19.1149751,194.854241 C15.4400577,200.177753 14.523556,201.479504 12.8544949,203.661508 C6.02471756,212.59024 2.24333332,214.29374 -1.98225972,209.949596 L-7,214.830404 C-2.63718627,219.315618 2.29583356,220.435152 7.23286851,218.211036 C10.9266297,216.54701 14.3605948,213.21408 18.4144217,207.914415 C20.182359,205.603148 21.1232649,204.266734 24.8756788,198.83096 C26.0486862,197.131733 26.8268977,196.015075 27.620986,194.898653 C34.5612458,185.14715 37.7263364,178.864044 45.6490633,160.927382 C51.2377894,148.274783 54.6300669,141.77374 59.8896654,134.664113 C66.6032896,125.589017 75.3132712,117.714439 87.4384649,110.280263 L134.140224,85.4503679 Z" mask="url(#d)"></path><polygon fill="#FFF7F5" fill-rule="nonzero" points="46.4 189.779 78.114 212.549 87.446 199.551 55.731 176.781" mask="url(#d)"></polygon><polygon fill="#FFF7F5" fill-rule="nonzero" points="56.5 164.232 105.193 197.242 114.171 183.998 65.478 150.988" mask="url(#d)"></polygon><polygon fill="#FFF7F5" fill-rule="nonzero" points="69.191 139.239 125.185 178.519 134.373 165.421 78.379 126.141" mask="url(#d)"></polygon></g></g><g transform="translate(.033 462.483)"><path fill="#EBBAAA" fill-rule="nonzero" d="M104.239339 146.037777C100.884157 173.549063 93.8918538 197.969877 82.2493814 219.27315 68.4826557 244.46336 48.4560978 264.787834 20.3730826 279.967842 2.39668837 289.684812-4.298898 312.134719 5.41807184 330.111113 15.1350417 348.087508 37.5849489 354.783094 55.5613431 345.066124 96.4360404 322.971693 126.683313 292.274461 147.184794 254.761066 163.760727 224.430598 173.282982 191.173857 177.695087 154.996189 180.168884 134.711944 165.730663 116.262906 145.446418 113.789109 125.162174 111.315312 106.713136 125.753533 104.239339 146.037777zM406.74101 115.695867C425.614675 149.153728 443.824721 201.937393 455.300994 255.077528 460.746574 280.292933 464.315317 304.042246 465.610956 323.561329 466.237256 332.996667 466.31441 341.202119 465.87015 347.838637 465.669126 350.841603 465.367072 353.428096 464.989651 355.541712 464.703788 357.142589 464.411369 358.277078 464.194856 358.87249 457.211495 378.076732 467.118477 399.305979 486.32272 406.28934 505.526962 413.272701 526.756209 403.365719 533.73957 384.161476 544.585564 354.334991 541.098878 301.807309 527.633432 239.456438 514.708546 179.6086 494.164472 120.059516 471.193416 79.3380992 461.153496 61.5400586 438.58637 55.2508594 420.788329 65.2907798 402.990288 75.3307002 396.701089 97.8978264 406.74101 115.695867z"></path><path fill="#DB5B32" fill-rule="nonzero" d="M113.941213 56.5309831C124.351213 24.4909831 158.765213 6.9559831 190.805213 17.3669831L238.329213 32.8079831C270.369213 43.2189831 287.904213 77.6319831 277.493213 109.672983L241.520213 220.387983 77.9672128 167.246983 113.941213 56.5309831zM496.370213 74.5309831C485.959213 42.4909831 451.546213 24.9559831 419.505213 35.3669831L371.982213 50.8079831C339.941213 61.2189831 322.407213 95.6319831 332.817213 127.672983L368.791213 238.387983 532.343213 185.246983 496.370213 74.5309831z"></path><rect width="106.597" height="16.19" x="407.86" y="172.591" fill="#FFF7F5" fill-rule="nonzero" transform="rotate(162 461.159 180.686)"></rect><rect width="106.597" height="16.19" x="95.86" y="152.591" fill="#FFF7F5" fill-rule="nonzero" transform="rotate(18 149.159 160.686)"></rect><path fill="#E96B43" fill-rule="nonzero" d="M161.854213,64.0979831 C162.663213,30.7059831 189.392213,3.7489831 222.777213,2.6579831 L300.706213,0.109983102 C307.056213,-0.0980168981 313.412213,0.234983102 319.706213,1.1059831 L395.780213,11.6249831 C429.337213,16.2649831 453.218213,46.6119831 449.836213,80.3199831 L435.442213,223.796983 L442.664213,399.356983 C442.736213,401.119983 441.279213,402.563983 439.517213,402.479803 L146.318213,387.814983 C144.624213,387.730983 143.337213,386.259983 143.479213,384.568983 L158.417213,205.930983 L161.854213,64.0979831 Z"></path><mask id="f" fill="#fff"><use xlink:href="#e"></use></mask><rect width="30" height="440.759" x="189.353" y="-1" fill="#D15229" fill-rule="nonzero" mask="url(#f)" transform="rotate(3 204.353 219.38)"></rect><rect width="30" height="381" x="250.967" y="41.517" fill="#D15229" fill-rule="nonzero" mask="url(#f)" transform="rotate(3 265.967 232.017)"></rect><rect width="30" height="429.879" x="316.196" y="-.993" fill="#D15229" fill-rule="nonzero" mask="url(#f)" transform="rotate(3 331.196 213.947)"></rect><rect width="30" height="420.943" x="376.962" y="10.014" fill="#D15229" fill-rule="nonzero" mask="url(#f)" transform="rotate(3 391.962 220.485)"></rect><ellipse cx="301.467" cy="34.017" fill="#FFF7F5" fill-rule="nonzero" mask="url(#f)" rx="59.5" ry="63.5"></ellipse><path fill="#FFF7F5" fill-rule="nonzero" d="M245.448213,198.284983 C240.069213,198.002983 235.289213,196.470983 231.109213,193.687983 C226.932213,190.852983 223.736213,187.133983 221.520213,182.530983 C219.305213,177.928983 218.338213,172.937983 218.620213,167.558983 C218.890213,162.392983 220.364213,157.716983 223.040213,153.530983 C225.769213,149.347983 229.410213,146.120983 233.962213,143.848983 C238.513213,141.577983 243.612213,140.589983 249.258213,140.885983 C252.347213,141.047983 255.311213,141.549983 258.151213,142.392983 C261.044213,143.238983 263.629213,144.362983 265.905213,145.763983 L259.983213,157.870983 C256.440213,156.188983 253.097213,155.266983 249.955213,155.101983 C245.854213,154.886983 242.615213,156.051983 240.238213,158.597983 C237.865213,161.090983 236.566213,164.466983 236.343213,168.727983 C236.198213,171.497983 236.572213,174.026983 237.467213,176.316983 C238.365213,178.553983 239.685213,180.358983 241.429213,181.731983 C243.226213,183.107983 245.297213,183.857983 247.640213,183.979983 C248.918213,184.046983 249.989213,183.996983 250.852213,183.827983 L251.527213,170.965983 L265.431213,170.091983 L264.121213,195.097983 C257.957213,197.551983 251.733213,198.614983 245.448213,198.284983 Z M282.284213,143.817983 L320.871213,145.840983 L320.234213,157.983983 L301.061213,156.978983 L300.537213,166.964983 L318.033213,167.881983 L317.506213,177.948983 L300.010213,177.031983 L299.453213,187.656983 L318.627213,188.661983 L317.990213,200.804983 L279.403213,198.782983 L282.284213,143.817983 Z M336.587213,146.663983 L375.174213,148.686983 L374.538213,160.829983 L355.364213,159.824983 L354.841213,169.810983 L372.337213,170.727983 L371.809213,180.793983 L354.313213,179.877983 L353.757213,190.502983 L372.930213,191.507983 L372.294213,203.650983 L333.707213,201.628983 L336.587213,146.663983 Z" mask="url(#f)"></path><rect width="76.857" height="115.285" x="262.775" y="-37.467" fill="#EBBAAA" fill-rule="nonzero" mask="url(#f)" rx="38.428"></rect></g><g transform="translate(81)"><ellipse cx="58.837" cy="288.809" fill="#EBBAAA" fill-rule="nonzero" rx="58.069" ry="55.081"></ellipse><ellipse cx="387.905" cy="293.079" fill="#EBBAAA" fill-rule="nonzero" rx="58.069" ry="55.081"></ellipse><path fill="#F6DDD6" fill-rule="nonzero" d="M47,190.197 C47,92.3339 126.334,13 224.197,13 C322.061,13 401.395,92.3339 401.395,190.197 L401.395,311.46 C401.395,409.323 322.061,488.657 224.197,488.657 C126.334,488.657 47,409.323 47,311.46 L47,190.197 Z"></path><g transform="translate(46.982 13)"><mask id="h" fill="#fff"><use xlink:href="#g"></use></mask><path fill="#D5CCC9" fill-rule="nonzero" d="M69.0177334,349 C30.7197334,349.56 16.0607334,298.564 2.01773337,282 C-1.64926663,314 -9.18226663,379.2 -9.98226663,384 C-10.7822666,388.8 15.6847334,448 29.0177334,477 L264.017733,477 L348.017733,378 C351.017733,336.333 367.017733,263 355.017733,291 C343.017733,319 306.350733,349 279.017733,349 C279.017733,349 218.017733,336 170.017733,336 C122.017733,336 69.0177334,349 69.0177334,349 Z" mask="url(#h)"></path></g><path fill="#C99584" fill-rule="nonzero" d="M171.04236,386.861734 C198.407242,398.93609 232.243776,401.411934 266.78445,393.301415 C270.81691,392.35455 273.31828,388.31801 272.371415,384.28555 C271.42455,380.25309 267.38801,377.75172 263.35555,378.698585 C231.894459,386.085985 201.381945,383.853362 177.09764,373.138266 C173.308009,371.466146 168.880386,373.182729 167.208266,376.97236 C165.536146,380.761991 167.252729,385.189614 171.04236,386.861734 Z"></path><path fill="#393939" fill-rule="nonzero" d="M121.346045,233.27089 L177.688045,231.79589 C184.313192,231.622448 189.543332,226.111102 189.36989,219.485955 C189.196448,212.860808 183.685102,207.630668 177.059955,207.80411 L120.717955,209.27911 C114.092808,209.452552 108.862668,214.963898 109.03611,221.589045 C109.209552,228.214192 114.720898,233.444332 121.346045,233.27089 Z"></path><path fill="#000" fill-rule="nonzero" d="M152.252 264.727575L152.251 292.994575C152.251 299.621992 157.623158 304.995 164.250575 304.995 170.877992 304.995 176.250766 299.622842 176.251 292.995425L176.252 264.728425C176.252 258.101008 170.879842 252.728 164.252425 252.728 157.625008 252.728 152.252234 258.100158 152.252 264.727575zM270.098 264.728L270.098 292.995C270.098 299.622417 275.470583 304.995 282.098 304.995 288.725417 304.995 294.098 299.622417 294.098 292.995L294.098 264.728C294.098 258.100583 288.725417 252.728 282.098 252.728 275.470583 252.728 270.098 258.100583 270.098 264.728z"></path><path fill="#393939" fill-rule="nonzero" d="M265.74496 232.20389L322.08796 233.67889C328.713107 233.852329 334.224451 228.622187 334.39789 221.99704 334.571329 215.371893 329.341187 209.860549 322.71604 209.68711L266.37304 208.21211C259.747893 208.038671 254.236549 213.268813 254.06311 219.89396 253.889671 226.519107 259.119813 232.030451 265.74496 232.20389zM220.333 101.625C135.436 101.625 60.651 101.625 60.651 156.385 51.975 199.424 43.132 177.712 38 138.516 42.805 24.1537 171.066-1.42108547e-14 224-1.42108547e-14 267.383 30.7425 305.23 101.625 220.333 101.625L220.333 101.625z"></path><rect width="23.057" height="130" x="38" y="127" fill="#393939" fill-rule="nonzero" rx="11.528"></rect><path fill="#393939" fill-rule="nonzero" d="M226.667,101.625 C311.564,101.625 386.349,101.625 386.349,156.385 C395.025,199.424 403.868,177.713 409,138.516 C404.195,24.154 276.434,0 223.5,0 C180.117,30.7425 141.77,101.625 226.667,101.625 Z"></path><rect width="23.057" height="129" x="385.575" y="127" fill="#393939" fill-rule="nonzero" rx="11.528" transform="matrix(-1 0 0 1 794.207 0)"></rect><path fill="#393939" fill-rule="nonzero" d="M217.198,125.217 C202.059,114.143 181.521,105.22 146,103 L222.686,82.5 L303.5,103 C270.825,104.79 245.764,114.594 228.449,125.597 C224.988,127.797 220.508,127.639 217.198,125.217 Z"></path><polygon fill="#000" fill-rule="nonzero" points="205 282 241.72 282 241.72 268 205 268"></polygon><rect width="107" height="64" x="94" y="255" stroke="#393939" stroke-width="14" rx="10"></rect><rect width="107" height="64" x="243" y="255" stroke="#393939" stroke-width="14" rx="10"></rect><path fill="#EBBAAA" fill-rule="nonzero" d="M208.831859,284.332628 C203.999465,294.436726 200.884204,303.344426 200.389455,311.816994 C199.533642,326.472784 207.885078,336.5 224.5,336.5 L224.5,319.5 C218.174169,319.5 217.048681,318.148674 217.360545,312.808006 C217.689865,307.168393 220.234593,299.892063 224.168141,291.667372 L208.831859,284.332628 Z"></path></g></g></g></svg>