<?xml version="1.0" encoding="utf-8"?>
<!-- Generator: Adobe Illustrator 24.2.1, SVG Export Plug-In . SVG Version: 6.00 Build 0)  -->
<!DOCTYPE svg PUBLIC "-//W3C//DTD SVG 1.1//EN" "http://www.w3.org/Graphics/SVG/1.1/DTD/svg11.dtd" [
	<!ENTITY ns_extend "http://ns.adobe.com/Extensibility/1.0/">
	<!ENTITY ns_ai "http://ns.adobe.com/AdobeIllustrator/10.0/">
	<!ENTITY ns_graphs "http://ns.adobe.com/Graphs/1.0/">
	<!ENTITY ns_vars "http://ns.adobe.com/Variables/1.0/">
	<!ENTITY ns_imrep "http://ns.adobe.com/ImageReplacement/1.0/">
	<!ENTITY ns_sfw "http://ns.adobe.com/SaveForWeb/1.0/">
	<!ENTITY ns_custom "http://ns.adobe.com/GenericCustomNamespace/1.0/">
	<!ENTITY ns_adobe_xpath "http://ns.adobe.com/XPath/1.0/">
]>
<svg version="1.1" id="Layer_1" xmlns:x="&ns_extend;" xmlns:i="&ns_ai;" xmlns:graph="&ns_graphs;"
	 xmlns="http://www.w3.org/2000/svg" xmlns:xlink="http://www.w3.org/1999/xlink" x="0px" y="0px" width="2048px" height="2048px"
	 viewBox="0 0 2048 2048" style="enable-background:new 0 0 2048 2048;" xml:space="preserve">
<style type="text/css">
	.Drop_x0020_Shadow{fill:none;}
	.Round_x0020_Corners_x0020_2_x0020_pt{fill:#FFFFFF;stroke:#231F20;stroke-miterlimit:10;}
	.Live_x0020_Reflect_x0020_X{fill:none;}
	.Bevel_x0020_Soft{fill:url(#SVGID_1_);}
	.Dusk{fill:#FFFFFF;}
	.Foliage_GS{fill:#FFDD00;}
	.Pompadour_GS{fill-rule:evenodd;clip-rule:evenodd;fill:#44ADE2;}
	.st0{fill:#FEF3E2;}
	.st1{fill:#E2C89A;}
	.st2{fill:#FFF6EE;}
	.st3{fill:#2C224E;}
	.st4{fill:#07D2D9;}
	.st5{fill:#FF6C50;}
	.st6{fill:#FEAD8B;}
	.st7{fill:#FFAD90;}
	.st8{fill:#00B9BC;}
	.st9{fill:#FFFFFF;}
	.st10{fill:#D3E8A6;}
	.st11{fill:#BFCE93;}
	.st12{fill:#FE936E;}
</style>
<metadata>
	<sfw  xmlns="&ns_sfw;">
		<slices></slices>
		<sliceSourceBounds  bottomLeftOrigin="true" height="1450.3" width="1721.4" x="163.3" y="-1749.1"></sliceSourceBounds>
	</sfw>
</metadata>
<linearGradient id="SVGID_1_" gradientUnits="userSpaceOnUse" x1="0" y1="0" x2="0.7071" y2="0.7071">
	<stop  offset="0" style="stop-color:#DEDFE3"/>
	<stop  offset="0.1783" style="stop-color:#DADBDF"/>
	<stop  offset="0.3611" style="stop-color:#CECFD3"/>
	<stop  offset="0.546" style="stop-color:#B9BCBF"/>
	<stop  offset="0.7324" style="stop-color:#9CA0A2"/>
	<stop  offset="0.9181" style="stop-color:#787D7E"/>
	<stop  offset="1" style="stop-color:#656B6C"/>
</linearGradient>
<g>
	<path class="st0" d="M259.7,1256.7c0,0-182.6-210.8-45.1-364.9S1222.6,15,1514.8,421.2s164.1,193.1,332.2,445.4
		c49.4,74.2,107.7,556.6-234.8,437C1365.2,1217.5,259.7,1256.7,259.7,1256.7z"/>
	<path class="st1" d="M189.1,1218.7c0,0,1629.2-34.5,1652.2,0c23,34.5,82.7,151.7-112.6,211.4c-195.3,59.7,158.6,82.7,71.2,133.3
		c-87.3,50.6-549.2,241.3-955.9,170s-588.3-128.7-459.6-176.9s351.6-105.7,160.9-135.6S83.4,1301.4,189.1,1218.7z"/>
	<g>
		<g>
			<g>
				<path class="st2" d="M406.6,781.7l-12.1-2.1l2-10l10.5,1.8l1.6,0.3l-0.4,1.9L406.6,781.7z M386.7,746l-1.9,9.1l-12.1-2.1l2-10
					l10.7,1.8l1.5,0.3L386.7,746z M311.3,788.2l2-10l12.1,2.1l-2,10L311.3,788.2z M323.3,791.2l-2.1,10l-12.1-2.1l2-10L323.3,791.2z
					 M310.4,788l-12.1-2.1l2-10l12.1,2.1L310.4,788z M310.2,789l-2,10l-12.1-2.1l2-10L310.2,789z M307.9,800l-2,10l-12.1-2.1l2-10
					L307.9,800z M308.9,800.2l12.1,2.1l-2,10l-12.1-2.1L308.9,800.2z M322,802.4l12.1,2.1l-2,10l-12.1-2.1L322,802.4z M322.2,801.4
					l2-10l12.1,2.1l-2,10L322.2,801.4z M324.4,790.4l2-10l12.1,2.1l-2,10L324.4,790.4z M326.7,779.4l2-10l12.1,2.1l-2,10
					L326.7,779.4z M325.7,779.2l-12.1-2.1l2-10l12.1,2.1L325.7,779.2z M312.6,777l-12.1-2.1l2.1-10l12.1,2.1L312.6,777z
					 M299.5,774.7l-12.1-2.1l2-10l12.1,2.1L299.5,774.7z M299.3,775.7l-2,10l-12.1-2.1l2-10L299.3,775.7z M297,786.7l-2,10
					l-12.1-2.1l2-10L297,786.7z M294.8,797.7l-2,10l-12.1-2.1l2-10L294.8,797.7z M292.6,808.8l-2,10l-12.1-2.1l2-10L292.6,808.8z
					 M293.5,808.9l12.1,2.1l-2,10l-12.1-2.1L293.5,808.9z M306.7,811.2l12.1,2.1l-2,10l-12.1-2.1L306.7,811.2z M319.8,813.4
					l12.1,2.1l-2,10l-12.1-2.1L319.8,813.4z M332.9,815.7l12.1,2.1l-2,10l-12.1-2.1L332.9,815.7z M333.1,814.7l2-10l12.1,2.1l-2,10
					L333.1,814.7z M335.3,803.7l2-10l12.1,2.1l-2,10L335.3,803.7z M337.6,792.6l2-10l12.1,2.1l-2,10L337.6,792.6z M339.8,781.6l2-10
					l12.1,2.1l-2,10L339.8,781.6z M342,770.6l2-10l12.1,2.1l-2,10L342,770.6z M341.1,770.4l-12.1-2.1l2-10l12.1,2.1L341.1,770.4z
					 M327.9,768.2l-12.1-2.1l2-10l12.1,2.1L327.9,768.2z M314.8,766l-12.1-2.1l2-10l12.1,2.1L314.8,766z M301.7,763.7l-12.1-2.1
					l2-10l12.1,2.1L301.7,763.7z M288.6,761.5l-12.1-2.1l2-10l12.1,2.1L288.6,761.5z M288.4,762.5l-2,10l-12.1-2.1l2-10L288.4,762.5
					z M286.2,773.5l-2,10l-12.1-2.1l2-10L286.2,773.5z M283.9,784.5l-2,10l-12.1-2.1l2-10L283.9,784.5z M281.7,795.5l-2,10
					l-12.1-2.1l2-10L281.7,795.5z M279.4,806.5l-2,10l-12.1-2.1l2-10L279.4,806.5z M277.2,817.5l-2.1,10l-12.1-2.1l2-10L277.2,817.5
					z M278.2,817.7l12.1,2.1l-2,10l-12.1-2.1L278.2,817.7z M291.3,819.9l12.1,2.1l-2,10l-12.1-2.1L291.3,819.9z M304.4,822.2
					l12.1,2.1l-2,10l-12.1-2.1L304.4,822.2z M317.5,824.4l12.1,2.1l-2,10l-12.1-2.1L317.5,824.4z M330.6,826.7l12.1,2.1l-2,10
					l-12.1-2.1L330.6,826.7z M343.7,828.9l12.1,2.1l-2,10l-12.1-2.1L343.7,828.9z M343.9,827.9l2-10l12.1,2.1l-2,10L343.9,827.9z
					 M346.2,816.9l2-10l12.1,2.1l-2,10L346.2,816.9z M348.4,805.9l2-10l12.1,2.1l-2,10L348.4,805.9z M350.7,794.9l2-10l12.1,2.1
					l-2,10L350.7,794.9z M352.9,783.9l2-10l12.1,2.1l-2.1,10L352.9,783.9z M355.2,772.9l2-10l12.1,2.1l-2,10L355.2,772.9z
					 M357.4,761.8l2-10l12.1,2.1l-2,10L357.4,761.8z M356.4,761.7l-12.1-2.1l2.1-10l12.1,2.1L356.4,761.7z M343.3,759.4l-12.1-2.1
					l2-10l12.1,2.1L343.3,759.4z M330.2,757.2l-12.1-2.1l2-10l12.1,2.1L330.2,757.2z M317.1,754.9l-12.1-2.1l2-10l12.1,2.1
					L317.1,754.9z M304,752.7l-12.1-2.1l2-10l12.1,2.1L304,752.7z M290.9,750.5l-12.1-2.1l2-10l12.1,2.1L290.9,750.5z M277.7,748.2
					l-12.1-2.1l2-10l12.1,2.1L277.7,748.2z M277.5,749.2l-2,10l-12.1-2.1l2-10L277.5,749.2z M275.3,760.2l-2,10l-12.1-2.1l2-10
					L275.3,760.2z M273.1,771.2l-2,10l-12.1-2.1l2-10L273.1,771.2z M270.8,782.2l-2,10l-12.1-2.1l2-10L270.8,782.2z M268.6,793.3
					l-2,10l-12.1-2.1l2-10L268.6,793.3z M266.3,804.3l-2.1,10l-12.1-2.1l2-10L266.3,804.3z M264.1,815.3l-2,10l-12.1-2.1l2-10
					L264.1,815.3z M261.8,826.3l-2,10l-12.1-2.1l2-10L261.8,826.3z M262.8,826.5l12.1,2.1l-2,10l-12.1-2.1L262.8,826.5z
					 M275.9,828.7l12.1,2.1l-2,10l-12.1-2.1L275.9,828.7z M289.1,830.9l12.1,2.1l-2,10L287,841L289.1,830.9z M302.2,833.2l12.1,2.1
					l-2,10l-12.1-2.1L302.2,833.2z M315.3,835.4l12.1,2.1l-2,10l-12.1-2.1L315.3,835.4z M328.4,837.7l12.1,2.1l-2.1,10l-12.1-2.1
					L328.4,837.7z M341.5,839.9l12.1,2.1l-2,10l-12.1-2.1L341.5,839.9z M354.6,842.2l12.1,2.1l-2,10l-12.1-2.1L354.6,842.2z
					 M354.8,841.2l2-10l12.1,2.1l-2,10L354.8,841.2z M357.1,830.2l2-10l12.1,2.1l-2,10L357.1,830.2z M359.3,819.2l2-10l12.1,2.1
					l-2,10L359.3,819.2z M361.5,808.1l2.1-10l12.1,2.1l-2,10L361.5,808.1z M363.8,797.1l2-10l12.1,2.1l-2,10L363.8,797.1z
					 M366,786.1l2-10l12.1,2.1l-2,10L366,786.1z M368.3,775.1l2-10l12.1,2.1l-2,10L368.3,775.1z M370.5,764.1l2-10l12.1,2.1l-2,10
					L370.5,764.1z M385.7,756.3l12.1,2.1l-2,10l-12.1-2.1L385.7,756.3z M371.8,752.9l-12.1-2.1l2-10l12.1,2.1L371.8,752.9z
					 M358.7,750.7l-12.1-2.1l2-10l12.1,2.1L358.7,750.7z M345.5,748.4l-12.1-2.1l2-10l12.1,2.1L345.5,748.4z M332.4,746.2l-12.1-2.1
					l2-10l12.1,2.1L332.4,746.2z M319.3,743.9l-12.1-2.1l2-10l12.1,2.1L319.3,743.9z M306.2,741.7l-12.1-2.1l2-10l12.1,2.1
					L306.2,741.7z M293.1,739.4l-12.1-2.1l2-10l12.1,2.1L293.1,739.4z M280,737.2l-12.1-2.1l2-10l12.1,2.1L280,737.2z M266.9,735
					l-12.1-2.1l2-10l12.1,2.1L266.9,735z M266.7,735.9l-2,10l-12.1-2.1l2-10L266.7,735.9z M264.4,747l-2,10l-12.1-2.1l2-10
					L264.4,747z M262.2,758l-2,10l-12.1-2.1l2-10L262.2,758z M260,769l-2.1,10l-12.1-2.1l2-10L260,769z M257.7,780l-2,10l-12.1-2.1
					l2.1-10L257.7,780z M255.5,791l-2,10l-12.1-2.1l2-10L255.5,791z M253.2,802l-2,10l-12.1-2.1l2-10L253.2,802z M251,813l-2,10
					l-12.1-2.1l2-10L251,813z M248.7,824.1l-2,10l-12.1-2.1l2-10L248.7,824.1z M247.5,835.2l12.1,2.1l-2,10l-12.1-2.1L247.5,835.2z
					 M260.6,837.5l12.1,2.1l-2,10l-12.1-2.1L260.6,837.5z M273.7,839.7l12.1,2.1l-2,10l-12.1-2.1L273.7,839.7z M286.8,842l12.1,2.1
					l-2,10l-12.1-2.1L286.8,842z M299.9,844.2l12.1,2.1l-2,10l-12.1-2.1L299.9,844.2z M313,846.4l12.1,2.1l-2,10l-12.1-2.1
					L313,846.4z M326.1,848.7l12.1,2.1l-2,10l-12.1-2.1L326.1,848.7z M339.3,850.9l12.1,2.1l-2,10l-12.1-2.1L339.3,850.9z
					 M352.4,853.2l12.1,2.1l-2,10l-12.1-2.1L352.4,853.2z M365.5,855.4l12.1,2.1l-2,10l-12.1-2.1L365.5,855.4z M365.7,854.4l2-10
					l12.1,2.1l-2,10L365.7,854.4z M367.9,843.4l2-10l12.1,2.1l-2,10L367.9,843.4z M370.2,832.4l2-10l12.1,2.1l-2.1,10L370.2,832.4z
					 M372.4,821.4l2-10l12.1,2.1l-2,10L372.4,821.4z M374.6,810.4l2-10l12.1,2.1l-2,10L374.6,810.4z M376.9,799.4l2-10l12.1,2.1
					l-2,10L376.9,799.4z M379.1,788.4l2-10l12.1,2.1l-2,10L379.1,788.4z M381.4,777.3l2-10l12.1,2.1l-2,10L381.4,777.3z
					 M410.9,760.6l-2,10l-2.5-0.4l-9.7-1.7l1.9-9.5l0.1-0.5L410.9,760.6z M400,747.4l-2,10l-0.7-0.1l-11.4-1.9l1.7-8.5l0.3-1.6
					L400,747.4z M377,732l12.1,2.1l-2,10l-3.1-0.5l-9.1-1.5l1-5L377,732z M363.9,729.8l2,0.3l10.2,1.7l-0.9,4.5l-1.1,5.5l-12.1-2.1
					L363.9,729.8z M350.8,727.5l12.1,2.1l-2,10l-12.1-2.1L350.8,727.5z M337.7,725.3l12.1,2.1l-2.1,10l-12.1-2.1L337.7,725.3z
					 M324.6,723.1l12.1,2.1l-2,10l-12.1-2.1L324.6,723.1z M311.5,720.8l12.1,2.1l-2,10l-12.1-2.1L311.5,720.8z M298.4,718.6
					l12.1,2.1l-2,10l-12.1-2.1L298.4,718.6z M285.3,716.3l12.1,2.1l-2,10l-12.1-2.1L285.3,716.3z M272.2,714.1l12.1,2.1l-2,10
					l-12.1-2.1L272.2,714.1z M259,711.8l4.4,0.8l7.7,1.3l-2,10l-12.1-2.1l1.6-7.9L259,711.8z M243.9,719.6l2-10l12.1,2.1l-0.5,2.7
					l-1.5,7.3l-11.2-1.9L243.9,719.6z M243.7,720.6l12.1,2.1l-2,10l-12.1-2.1L243.7,720.6z M241.4,731.6l12.1,2.1l-2,10l-12.1-2.1
					L241.4,731.6z M239.2,742.6l12.1,2.1l-2,10l-12.1-2.1L239.2,742.6z M237,753.7l12.1,2.1l-2.1,10l-12.1-2.1L237,753.7z
					 M234.7,764.7l12.1,2.1l-2,10l-12.1-2.1L234.7,764.7z M232.5,775.7l12.1,2.1l-2,10l-12.1-2.1L232.5,775.7z M230.2,786.7
					l12.1,2.1l-2,10l-12.1-2.1L230.2,786.7z M228,797.7l12.1,2.1l-2,10l-12.1-2.1L228,797.7z M225.7,808.7l12.1,2.1l-2,10l-12.1-2.1
					L225.7,808.7z M227.7,830.8l-6.3-1.1l1.2-5.9l0.8-4.1l12.1,2.1l-2,10L227.7,830.8z M240.3,844.4l-8-1.4l1.1-5.5l0.9-4.5
					l12.1,2.1l-2,10L240.3,844.4z M255.3,858.4l-12.1-2.1l1.6-8l0.4-2.1l12.1,2.1l-1.7,8.2L255.3,858.4z M268.4,860.6l-8.8-1.5
					l-3.3-0.6l0.3-1.4l1.8-8.7l12.1,2.1L268.4,860.6z M281.5,862.8l-12.1-2.1l2-10l12.1,2.1L281.5,862.8z M294.6,865.1l-12.1-2.1
					l2-10l12.1,2.1L294.6,865.1z M307.8,867.3l-12.1-2.1l2-10l12.1,2.1L307.8,867.3z M320.9,869.6l-12.1-2.1l2-10l12.1,2.1
					L320.9,869.6z M334,871.8l-12.1-2.1l2-10l12.1,2.1L334,871.8z M347.1,874.1L335,872l2.1-10l12.1,2.1L347.1,874.1z M360.2,876.3
					l-12.1-2.1l2-10l12.1,2.1L360.2,876.3z M373.3,878.5l-9.7-1.7l-2.4-0.4l2-10l12.1,2.1l-1,4.7L373.3,878.5z M386.4,880.8
					l-12.1-2.1l1.2-6l0.8-4l5.7,1l6.5,1.1L386.4,880.8z M388.7,869.8l-5.2-0.9l-6.9-1.2l2-10l12.1,2.1l-1.1,5.3L388.7,869.8z
					 M390.9,858.8l-12.1-2.1l2.1-10l12.1,2.1L390.9,858.8z M393.2,847.7l-12.1-2.1l2-10l12.1,2.1L393.2,847.7z M395.4,836.7
					l-12.1-2.1l2-10l12.1,2.1L395.4,836.7z M397.6,825.7l-12.1-2.1l2-10l12.1,2.1L397.6,825.7z M399.9,814.7l-12.1-2.1l2-10
					l12.1,2.1L399.9,814.7z M402.1,803.7l-12.1-2.1l2-10l12.1,2.1L402.1,803.7z M392.2,790.6l2-10l12.1,2.1l-2,10L392.2,790.6z
					 M418.5,807.5l8.3,1.4l0.2-1l-8.5-1.5l-15.4-2.6l2-10l11.7,2l9.9,1.7l0.2-1l-10.4-1.8l-11.3-1.9l2-10l5.7,1l13.7,2.3l0.1-0.7
					c0-0.1-0.1-0.2-0.1-0.3l-14.1-2.4l-5.1-0.9l1.4-7l0.6-3.1l12.8,2.2c-0.2-0.4-0.3-0.7-0.5-1.1l-12.1-2.1l2-10l3.7,0.6
					c-0.2-0.4-0.5-0.8-0.7-1.1l-2.7-0.5l0.6-2.8c-0.3-0.4-0.5-0.7-0.8-1.1l-0.8,3.7l-12.1-2.1l2-10l5,0.9c-0.3-0.4-0.7-0.8-1-1.2
					l-3.8-0.7l0.6-3c-0.3-0.3-0.5-0.6-0.8-0.9l-0.8,3.7l-12.1-2.1l2-10l2.7,0.5c-0.5-0.4-1-0.8-1.4-1.3l-1-0.2l0.1-0.6
					c-0.3-0.3-0.6-0.5-0.9-0.7l-0.2,1.2l-12.1-2.1l1.5-7.4c-0.3-0.2-0.6-0.4-0.9-0.6l-1.6,7.8l-12.1-2.1l2.6-12.7
					c-0.3-0.2-0.6-0.3-0.9-0.5l-2.6,12.8l0,0.2l-12.1-2.1l0.8-4.1l2.6-12.5c-0.3-0.1-0.6-0.3-0.9-0.4l-2.5,12.5l-0.9,4.3l-12.1-2.1
					l1.4-7l2.5-12.3c-0.3-0.1-0.6-0.2-0.9-0.3l-2.5,12.3l-1.5,7.2l-12.1-2.1l1.8-8.8l2.5-12.2c-0.3-0.1-0.7-0.2-1-0.2l-2.5,12.2
					l-1.8,8.9l-12.1-2.1l1.9-9.3l2.5-12.2c-0.3-0.1-0.7-0.1-1-0.2l-2.5,12.2l-1.9,9.3l-12.1-2.1l1.7-8.5l2.5-12.3
					c-0.3,0-0.7-0.1-1-0.1l-2.5,12.3l-1.7,8.4l-12.1-2.1l1.3-6.3l2.6-12.5c-0.4,0-0.7,0-1,0l-2.6,12.6l-1.3,6.1l-12.1-2.1l0.5-2.6
					l2.6-13c-0.3,0-0.7,0.1-1.1,0.2l-2.6,13l-0.5,2.2l-5.6-1l-6.6-1.1l2.2-10.6c-0.4,0.1-0.7,0.2-1.1,0.3l-2.1,10.1l-12.1-2.1
					l0.7-3.5c-0.4,0.1-0.8,0.3-1.1,0.5l-0.6,2.9l-4.1-0.7c-0.5,0.3-1,0.5-1.5,0.8l5.4,0.9l-2,10l-16.5-2.8c-0.4,0.3-0.7,0.6-1.1,0.8
					l17.4,3l-0.1,0.5l-2,9.5l-9.6-1.6l-15.4-2.6c-0.3,0.3-0.5,0.6-0.8,0.9l15.2,2.6l10.4,1.8l-2,10l-17-2.9l-13.7-2.3
					c-0.2,0.3-0.4,0.6-0.6,0.9l13.6,2.3l17.5,3l-2,10l-21.5-3.7l-12.8-2.2c-0.2,0.3-0.3,0.6-0.4,0.9l12.7,2.2l21.8,3.7l-2,10
					l-23.6-4l-12.3-2.1c-0.1,0.3-0.2,0.6-0.3,1l12.3,2.1l23.7,4l-2,10l-23.7-4l-12.3-2.1c0,0.3-0.1,0.7-0.1,1l12.3,2.1l23.6,4l-2,10
					l-21.8-3.7l-12.6-2.1c0,0.3,0,0.7,0,1l12.6,2.1l21.5,3.7l-2,10l-17.9-3.1l-13.1-2.2c0,0.3,0.1,0.7,0.2,1l13.2,2.3l17.4,3l-2,10
					l-12-2l-14-2.4c0.1,0.4,0.2,0.7,0.3,1.1l14.1,2.4l11.3,1.9l-2,10l-3.8-0.6l-15.3-2.6c0.2,0.4,0.3,0.7,0.5,1.1l15.5,2.6l2.9,0.5
					l-0.6,3.1l-1.4,6.9l-10-1.7c0.2,0.4,0.5,0.8,0.7,1.1l9.1,1.6l-1.8,8.7c0.3,0.3,0.5,0.7,0.8,1l1.9-9.5l7.4,1.3l4.7,0.8l-0.8,3.8
					l-1.3,6.2l-11.5-2c0.3,0.4,0.7,0.8,1,1.2l10.3,1.8l-1.5,7.6c0.3,0.3,0.6,0.5,0.9,0.8l1.7-8.2l9.6,1.6l2.6,0.4l-0.3,1.5l-1.7,8.5
					l-9.2-1.6c0.5,0.4,0.9,0.9,1.4,1.3l7.6,1.3l-0.9,4.3c0.3,0.2,0.6,0.5,0.9,0.7l1-4.8l12.1,2.1l-2.1,10.3c0.3,0.2,0.6,0.4,0.9,0.6
					l2.2-10.7l5.7,1l6.4,1.1l-0.5,2.3l-2.6,12.7c0.3,0.2,0.6,0.3,0.9,0.5l2.6-12.7l0.5-2.6l12.1,2.1l-1.2,5.9l-2.5,12.4
					c0.2,0.1,0.5,0.2,0.7,0.3c0.1,0,0.1,0.1,0.2,0.1l2.5-12.4l1.3-6.2l12.1,2.1l-1.7,8.3l-2.5,12.3c0.3,0.1,0.6,0.2,1,0.3l2.5-12.3
					l1.7-8.5l12.1,2.1l-1.9,9.5l-2.5,12.2c0.3,0.1,0.6,0.1,1,0.2l2.5-12.2l2-9.6l12.1,2.1l-1.9,9.5l-2.5,12.2c0.3,0,0.7,0.1,1,0.1
					l2.5-12.2l1.9-9.4l12.1,2.1l-1.6,8.1l-2.5,12.4c0.3,0,0.7,0,1,0l2.5-12.4l1.6-7.9l12.1,2.1l-1.1,5.2l-2.6,12.7
					c0.3,0,0.7-0.1,1-0.1l2.6-12.7l1-4.9l12.1,2.1l-0.1,0.6l-2.7,13.3c0.4-0.1,0.7-0.1,1.1-0.2l2.7-13.3l0-0.1l0.3,0l11.8,2l-1.6,8
					c0.4-0.1,0.7-0.2,1.1-0.4l1.5-7.4l11.7,2c0.6-0.3,1.1-0.5,1.7-0.8l2-9.9l10.8,1.8c0.4-0.3,0.7-0.5,1.1-0.8l-11.7-2l1.2-5.7
					l0.9-4.4l3.9,0.7l15.3,2.6c0.3-0.3,0.5-0.6,0.8-0.9l-15.1-2.6l-4.7-0.8l2-10l11.2,1.9l13.6,2.3c0.2-0.3,0.4-0.6,0.6-0.9
					l-13.5-2.3l-11.6-2l2-10l15.5,2.7l12.7,2.2c0.2-0.3,0.3-0.6,0.4-0.9l-12.7-2.2l-15.8-2.7l2-10l17.6,3l10.8,1.8l0.2-1l-10.7-1.8
					l-17.7-3l2-10l17.6,3l8.5,1.5l0.2-1l-8.6-1.5l-17.5-3l2-10L418.5,807.5z"/>
				<g>
					<path class="st3" d="M240.3,844.4c-2.4-2.2-4.7-4.5-6.9-6.9c-0.3-0.3-0.6-0.6-0.8-0.9l-1.3,6.2l-11.5-2c0.3,0.4,0.7,0.8,1,1.2
						l10.3,1.8l-1.5,7.6c0.3,0.3,0.6,0.5,0.9,0.8l1.7-8.2l9.6,1.6C241.2,845.2,240.8,844.8,240.3,844.4z M426.9,785.4
						c0-0.1-0.1-0.2-0.1-0.3c-1.2-3.7-2.7-7.4-4.4-11.1c-0.2-0.4-0.3-0.7-0.5-1.1c-1.5-3.1-3.1-6.1-4.9-9.1c-0.5-0.8-1-1.6-1.5-2.4
						c-0.2-0.4-0.5-0.8-0.7-1.1c-0.7-1.1-1.4-2.2-2.2-3.2c-0.3-0.4-0.5-0.7-0.8-1.1c-1.8-2.6-3.8-5.1-5.8-7.5
						c-0.3-0.4-0.7-0.8-1-1.2c-1-1.2-2.1-2.4-3.2-3.6c-0.3-0.3-0.5-0.6-0.8-0.9c-2.6-2.8-5.3-5.4-8.2-8c-0.5-0.4-1-0.8-1.4-1.3
						c-0.3-0.3-0.6-0.5-0.9-0.8c-0.3-0.3-0.6-0.5-0.9-0.7c-3.5-2.9-7.1-5.7-10.9-8.3c-0.3-0.2-0.6-0.4-0.9-0.6
						c-3.6-2.5-7.3-4.7-11.1-6.9c-0.3-0.2-0.6-0.3-0.9-0.5c-3.7-2-7.5-3.9-11.4-5.7c-0.3-0.1-0.6-0.3-0.9-0.4
						c-1.8-0.8-3.7-1.6-5.5-2.3c-2-0.8-4-1.6-6.1-2.3c-0.3-0.1-0.6-0.2-0.9-0.3c-3.9-1.3-7.9-2.5-11.8-3.6c-0.3-0.1-0.7-0.2-1-0.2
						c-4-1-8-1.8-12-2.5c-0.3-0.1-0.7-0.1-1-0.2c-4.1-0.7-8.2-1.1-12.3-1.4c-0.3,0-0.7-0.1-1-0.1c-4.2-0.3-8.4-0.4-12.5-0.3
						c-0.4,0-0.7,0-1,0c-4.3,0.1-8.6,0.5-12.8,1.1c-0.3,0-0.7,0.1-1.1,0.2c-4.4,0.6-8.8,1.5-13.1,2.6c-0.4,0.1-0.7,0.2-1.1,0.3
						c-0.5,0.1-1,0.3-1.5,0.4c-4.2,1.2-8.2,2.6-12,4.2c-0.4,0.1-0.8,0.3-1.1,0.5c-1.6,0.7-3.2,1.4-4.7,2.2c-0.5,0.3-1,0.5-1.5,0.8
						c-4.7,2.4-9.1,5.1-13.1,8.1c-0.4,0.3-0.7,0.6-1.1,0.8c-3.5,2.7-6.7,5.6-9.6,8.7c-0.3,0.3-0.5,0.6-0.8,0.9
						c-2.6,2.9-5,5.9-7.1,9.2c-0.2,0.3-0.4,0.6-0.6,0.9c-2,3-3.7,6.2-5.2,9.5c-0.2,0.3-0.3,0.6-0.4,0.9c-0.4,0.8-0.7,1.7-1.1,2.5
						c-1,2.4-1.8,4.8-2.5,7.3c-0.1,0.3-0.2,0.6-0.3,1c-0.9,3.3-1.5,6.7-2,10c0,0.3-0.1,0.7-0.1,1c-0.4,3.4-0.6,6.8-0.5,10.3
						c0,0.3,0,0.7,0,1c0.1,3.5,0.4,7,1,10.6c0,0.3,0.1,0.7,0.2,1c0.6,3.6,1.5,7.2,2.6,10.8c0.1,0.4,0.2,0.7,0.3,1.1
						c1.2,3.7,2.6,7.4,4.3,11.1c0.2,0.4,0.3,0.7,0.5,1.1c1.5,3.2,3.2,6.3,5.1,9.5c0.4,0.7,0.8,1.3,1.2,2c0.2,0.4,0.5,0.8,0.7,1.1
						c2.3,3.5,4.7,6.9,7.3,10.2c0.3,0.3,0.5,0.7,0.8,1c0.2,0.2,0.4,0.4,0.5,0.7c0.3,0.4,0.7,0.8,1,1.2c2.7,3.2,5.6,6.3,8.7,9.3
						c0.3,0.3,0.6,0.5,0.9,0.8c0.8,0.8,1.7,1.6,2.5,2.3c0.5,0.4,0.9,0.9,1.4,1.3c2.2,1.9,4.4,3.8,6.8,5.6c0.3,0.2,0.6,0.5,0.9,0.7
						c3.5,2.7,7.2,5.2,11,7.6c0.3,0.2,0.6,0.4,0.9,0.6c3.6,2.3,7.4,4.4,11.3,6.3c0.3,0.2,0.6,0.3,0.9,0.5c3.7,1.9,7.6,3.6,11.5,5.2
						c0.2,0.1,0.5,0.2,0.7,0.3c0.1,0,0.1,0.1,0.2,0.1c3.9,1.5,7.8,2.9,11.7,4.1c0.3,0.1,0.6,0.2,1,0.3c4,1.2,7.9,2.2,11.9,3.1
						c0.3,0.1,0.6,0.1,1,0.2c4,0.8,8.1,1.5,12.1,2c0.3,0,0.7,0.1,1,0.1c4.1,0.5,8.3,0.8,12.4,0.9c0.3,0,0.7,0,1,0c0.9,0,1.8,0,2.8,0
						c3.3,0,6.6-0.1,9.9-0.4c0.3,0,0.7-0.1,1-0.1c4.4-0.4,8.7-0.9,12.9-1.7c0.4-0.1,0.7-0.1,1.1-0.2c3.1-0.6,6.2-1.3,9.2-2.2
						c1.4-0.4,2.7-0.8,4.1-1.2c0.4-0.1,0.7-0.2,1.1-0.4c4.6-1.5,9-3.4,13.2-5.4c0.6-0.3,1.1-0.5,1.7-0.8c4.6-2.4,8.9-5.1,12.8-8.1
						c0.4-0.3,0.7-0.5,1.1-0.8c3.5-2.7,6.6-5.6,9.5-8.8c0.3-0.3,0.5-0.6,0.8-0.9c2.6-2.9,5-6,7.1-9.2c0.2-0.3,0.4-0.6,0.6-0.9
						c1.9-3,3.6-6.2,5.1-9.5c0.2-0.3,0.3-0.6,0.4-0.9c0.3-0.7,0.6-1.5,0.9-2.2C432.6,822.6,432.9,803.9,426.9,785.4z M411.7,840.5
						c-1.7,3.3-3.7,6.4-5.9,9.4c-0.2,0.3-0.5,0.6-0.7,0.9c-2.5,3.2-5.4,6.2-8.5,8.9c-0.3,0.3-0.7,0.6-1,0.8
						c-1.5,1.3-3.1,2.5-4.8,3.7c-0.4,0.3-0.8,0.5-1.2,0.8c-2,1.4-4,2.6-6.2,3.8c-0.5,0.3-1,0.5-1.4,0.8c-2.1,1.1-4.2,2.1-6.5,3.1
						c-0.4,0.2-0.7,0.3-1.1,0.5c-3.3,1.4-6.8,2.5-10.4,3.6c-0.1,0-0.3,0.1-0.4,0.1c-0.8,0.2-1.5,0.4-2.3,0.6c-0.1,0-0.2,0-0.3,0.1
						c-0.4,0.1-0.7,0.2-1.1,0.3c-4.3,1-8.6,1.8-13,2.3c-0.3,0-0.7,0.1-1,0.1c-4.2,0.4-8.4,0.7-12.7,0.7c-0.3,0-0.7,0-1,0
						c-4.1,0-8.2-0.3-12.4-0.7c-0.3,0-0.7-0.1-1-0.1c-4-0.5-8.1-1.1-12.2-2c-0.3-0.1-0.6-0.1-1-0.2c-4-0.9-8-1.9-11.9-3.1
						c-0.3-0.1-0.6-0.2-1-0.3c-3.3-1-6.6-2.2-9.8-3.5c-0.6-0.3-1.2-0.5-1.8-0.8c-0.3-0.1-0.6-0.3-0.9-0.4c-3.9-1.6-7.8-3.5-11.4-5.4
						c-0.3-0.2-0.6-0.3-0.9-0.5c-2-1.1-4-2.2-5.9-3.4c-0.8-0.5-1.5-0.9-2.3-1.4c-1-0.6-2-1.3-3-1.9c-0.3-0.2-0.6-0.4-0.9-0.6
						c-3.8-2.6-7.5-5.3-10.9-8.2c-0.3-0.2-0.6-0.5-0.9-0.7c-0.8-0.7-1.5-1.3-2.3-2c-0.5-0.4-0.9-0.8-1.4-1.2
						c-2.4-2.2-4.7-4.5-6.9-6.9c-0.3-0.3-0.6-0.6-0.8-0.9c-1.4-1.5-2.7-3-4-4.6c-0.3-0.4-0.6-0.8-0.9-1.2c-1.8-2.3-3.5-4.6-5.1-7
						c-0.3-0.4-0.5-0.8-0.8-1.2c-0.8-1.2-1.5-2.4-2.3-3.6c-0.2-0.4-0.4-0.7-0.7-1.1c-2.1-3.7-4-7.5-5.5-11.3
						c-0.1-0.4-0.3-0.7-0.4-1.1c-1.4-3.6-2.6-7.3-3.4-11c-0.1-0.4-0.2-0.7-0.3-1.1c-0.8-3.5-1.3-7.1-1.5-10.7c0-0.3,0-0.7-0.1-1
						c-0.2-3.5-0.1-6.9,0.2-10.3c0-0.3,0.1-0.7,0.1-1c0.4-3.4,1.1-6.7,2-10c0.1-0.3,0.2-0.7,0.3-1c0.5-1.6,1-3.2,1.7-4.8
						c0.7-1.7,1.4-3.3,2.2-4.9c0.2-0.3,0.3-0.6,0.5-0.9c1.7-3.3,3.7-6.4,6-9.4c0.2-0.3,0.5-0.6,0.7-0.9c2.6-3.2,5.5-6.2,8.6-8.9
						c0.3-0.3,0.7-0.6,1-0.8c3.5-2.9,7.4-5.6,11.6-7.9c0.7-0.4,1.4-0.8,2.2-1.2c4-2.1,8.3-3.9,12.7-5.4c0.4-0.1,0.7-0.2,1.1-0.4
						c1.6-0.5,3.2-1,4.9-1.4c0.8-0.2,1.6-0.4,2.4-0.6c2-0.5,4-0.9,6-1.3c0.4-0.1,0.7-0.1,1.1-0.2c4.2-0.7,8.5-1.2,12.8-1.5
						c0.3,0,0.7,0,1,0c2-0.1,4-0.2,6-0.2c2.2,0,4.3,0.1,6.5,0.2c0.3,0,0.7,0,1,0.1c4,0.2,8.2,0.7,12.3,1.3c0.3,0,0.7,0.1,1,0.2
						c4,0.6,8,1.5,12,2.5c0.3,0.1,0.7,0.2,1,0.3c3.9,1,7.9,2.2,11.8,3.6c0.3,0.1,0.6,0.2,0.9,0.3c1.3,0.5,2.7,1,4,1.5
						c2.6,1,5.1,2.1,7.6,3.3c0.3,0.2,0.6,0.3,0.9,0.4c3.9,1.9,7.7,3.9,11.3,6c0.9,0.5,1.8,1.1,2.7,1.7c3.2,2,6.3,4.1,9.2,6.3
						c0.3,0.2,0.6,0.4,0.9,0.7c2.8,2.1,5.5,4.3,8,6.6c0.5,0.4,0.9,0.8,1.4,1.3c0.4,0.4,0.9,0.8,1.3,1.2c0.3,0.3,0.6,0.5,0.9,0.8
						c3.5,3.3,6.7,6.8,9.7,10.4c0.5,0.6,1,1.2,1.4,1.8c2.9,3.6,5.5,7.4,7.7,11.2c0.2,0.4,0.5,0.8,0.7,1.1c0.4,0.7,0.8,1.4,1.2,2.2
						c0.3,0.4,0.5,0.9,0.7,1.4c1.4,2.6,2.6,5.2,3.7,7.8c0.2,0.4,0.3,0.7,0.4,1.1c1.4,3.6,2.6,7.3,3.5,11c0.1,0.4,0.2,0.7,0.3,1
						c0.8,3.6,1.3,7.1,1.6,10.7c0,0.3,0,0.7,0.1,1c0.2,3.5,0.2,6.9-0.2,10.4c0,0.3-0.1,0.7-0.1,1c-0.4,3.4-1,6.8-2,10
						c-0.1,0.3-0.2,0.6-0.3,1c-0.5,1.7-1.1,3.4-1.8,5.1c-0.6,1.6-1.3,3.1-2.1,4.6C412,839.9,411.9,840.2,411.7,840.5z M240.3,844.4
						c-2.4-2.2-4.7-4.5-6.9-6.9c-0.3-0.3-0.6-0.6-0.8-0.9l-1.3,6.2l-11.5-2c0.3,0.4,0.7,0.8,1,1.2l10.3,1.8l-1.5,7.6
						c0.3,0.3,0.6,0.5,0.9,0.8l1.7-8.2l9.6,1.6C241.2,845.2,240.8,844.8,240.3,844.4z"/>
					<polygon class="st3" points="498.7,882.8 394.7,876.2 395.4,863.8 492,869.9 493.6,867.5 420.9,806.2 428.9,796.7 509.8,864.9 
											"/>
					
						<rect x="436.2" y="847.7" transform="matrix(0.3952 -0.9186 0.9186 0.3952 -508.6487 935.3307)" class="st3" width="39.6" height="12.4"/>
					<polygon class="st4" points="509.1,864.9 612.8,914.5 588.7,930.1 497.2,883.1 					"/>
				</g>
			</g>
			<g>
				<path class="st5" d="M953.8,566.7c0,0-54.6-48.5-16.9-69.1c37.7-20.6,118.8,5.3,118.8,5.3s13.2-2.2,17.1,6.1
					c3.9,8.3,3.5,115.3,3.5,115.3L953.8,566.7z"/>
				<path class="st6" d="M1221.5,1104c0,0,114.8,90.5,239.4,122.3c123.6,31.6,196,44.7,196,44.7l-6.6-56.6c0,0-251.2-35.5-317-168.4
					L1221.5,1104z"/>
				<path class="st7" d="M570.4,940.9c0,0,45.4-44.1,47.4-44.1c2,0,50.6-4.6,50.6-4.6s119-80.9,140.7-85.5l30.3-25l44.7,43.4
					c0,0-73.7,64.5-92.7,69.7s-112.5,35.5-112.5,35.5s-21.7,27-31.6,29.6c-9.9,2.6-17.4,3.9-19.4,1c0,0-16.8-1-16.8-7.9
					c0,0-16.4,7.2-16.4-5.6C594.7,947.5,571,962.3,570.4,940.9z"/>
				<path class="st4" d="M1250.4,759.4c0,0-15.8,98.7,7.9,126.3l-163.1,69.7L987.4,838.3c0,0-46-47.3-103.3-13.1l-44.7-43.4
					c0,0,60.5-102.5,102.6-118.1c2-0.8,4-1.3,5.9-1.6c25.4-4.4,76.7-18.3,130.8-23.2c35.7-3.2,72.6-2.5,104,7.4
					c78.9,25,128.3,60.5,128.3,60.5l-28.9,53.9L1250.4,759.4z"/>
				<path class="st8" d="M1031,707.9c-21.2,4.6-13.3-8.2-42.6-14.8c-20.8-4.7-38.1-20.6-46.3-29.4c2-0.8,4-1.3,5.9-1.6
					c25.4-4.4,76.7-18.3,130.8-23.2c3.5,2.8,7.3,7.1,10.2,13.9C1096.3,669.9,1052.2,703.3,1031,707.9z"/>
				<path class="st3" d="M1095.2,955.4l-22.4,21l113.1,117.1c0,0,110.5-50,114.4-90.8c3.9-40.8-42.1-117.1-42.1-117.1L1095.2,955.4z
					"/>
				<polygon class="st3" points="1205.7,1081.7 1221.5,1104 1345.2,1043.5 1299.1,1006.7 1201.8,1068.5 				"/>
				<path class="st6" d="M1072.9,976.4c0,0-115.8,39.5-177.6,193.4l-68.4,140.7l34.2,30.3l90.8-125c0,0,44.7-84.2,113.1-113.1
					s107.9-23.7,107.9-23.7L1072.9,976.4z"/>
				<path class="st6" d="M1311,706.8c0,0,135.8,61.5,174.3,91.1c0,0,137.1-3.9,130.2,6.9s-51.3,21.7-51.3,21.7l-35.5,8.9
					c0,0,15.8,35.5,2,32.6c-13.8-3-12.8-21.7-26.6-24.7c-13.8-3-29.6-18.7-29.6-21.7c0-3-192.4-60.8-192.4-60.8L1311,706.8z"/>
				<path class="st6" d="M1078.6,646.7c-0.3,13-17.5,35-31,47.8c-6.5,6.2-12.1,10.2-14.6,10.1c-6.3-0.4-11.7-22.7-13.2-29.6v0
					c-0.3-1.3-0.4-2-0.4-2s-2.6-0.4-15.4-2.6c-12.7-2.2-21-38.1-21-38.1s-5.3-0.4-7.5-4.8c-2.2-4.4-6.1-16.7-13.6-29.4
					c-7.5-12.7-9.7-41.2-9.7-41.2c1.3-5.3,8.3-4.8,15.8-1.8c7.4,3.1,38.1-0.9,51.7,3.1c13.6,3.9,14,8.8,21.5,21
					c7.5,12.3,12.3,21.9,13.6,24.1c1.3,2.2-0.9-15.8-0.9-15.8s14.9-20.6,19.3-7.9c4.4,12.7-4.4,31.6-4.4,31.6
					S1079,627.4,1078.6,646.7z"/>
				<path class="st9" d="M932.1,544c0,0-34.9,15.5-34.2,22.7c0.7,7.2,45.4,6.6,61.2,1.3s42.1-13.5,42.1-13.5l76.3,1V542l-152.3-9.2
					L932.1,544z"/>
				<path class="st5" d="M983,632.7l-0.1-1c0.3,0,7.8-0.6,7.4-11.3l0-0.3l0.3-0.1c0,0,4.3-2.2,0.2-13l0.9-0.4
					c3.9,10.2,0.7,13.3-0.4,14.1C991.7,632.2,983.1,632.7,983,632.7z"/>
				<circle class="st3" cx="1000.8" cy="590.6" r="4.4"/>
				<path class="st5" d="M983.4,583.4c0,0,20.8-5.3,26.7-4.4s11.2,1.1,11.2,1.1s-6.1-5.5-14.5-4.4c-8.3,1.1-27.2,0-26.3,2.9
					C981.4,581.4,983.4,583.4,983.4,583.4z"/>
				<polygon class="st2" points="826.9,1310.6 861.1,1340.8 822.9,1386.9 794.7,1358.6 				"/>
				<path class="st9" d="M794.7,1358.6l10.3-14.3c0,0,18,5.7,15.3,13.2c-2.6,7.5-9.2,18.4-9.2,18.4l11.8,11c0,0-5.7,27.2-16.7,35.1
					c0,0-89.9-35.1-96.9-60.9C702.4,1335.1,794.7,1358.6,794.7,1358.6z"/>
				<path class="st2" d="M1650.3,1214.5l63.1,6.6l-0.4,58.3l-56.1-7C1656.9,1272.4,1647.7,1214.5,1650.3,1214.5z"/>
				<path class="st9" d="M1704,1229.9c0,0,2.1-14.9,13.8-13.3c11.7,1.6,31.9,11.7,36.7,20.2c4.8,8.5,51.1,107.5,43.6,112.8
					s-49.5-15.4-61.7-37.2c-12.2-21.8-44.2-19.2-45.8-32.5c-1.6-13.3,2.1-20.2,2.1-20.2h12.8L1704,1229.9z"/>
			</g>
			<g>
				<circle class="st10" cx="489.2" cy="973.7" r="42.9"/>
				<path class="st11" d="M489.2,930.8c-6.1,0-11.8,1.3-17.1,3.5c2.7-0.6,5.5-1,8.4-1c20,0,36.3,16.2,36.3,36.3
					s-16.2,36.3-36.3,36.3c-14.3,0-26.6-8.2-32.5-20.2c5.2,17.9,21.7,30.9,41.2,30.9c23.7,0,42.9-19.2,42.9-42.9
					C532.1,950,512.9,930.8,489.2,930.8z"/>
			</g>
		</g>
		<path class="st5" d="M998.9,651.3c-0.5,0-1,0-1.5-0.1c-2.3-0.3-3.6-1.1-4.1-2.4c-0.7-2.1,1.6-4.9,2.9-6.3
			c-1.2-0.1-3.3-0.6-7.1-1.8c-1.5-0.5-2.3-1.2-2.3-2.1c0-2.6,7.6-5.5,9.2-6l0.3,0.9c-3.5,1.2-8.5,3.6-8.5,5.1c0,0.4,0.6,0.8,1.6,1.1
			c6.4,2.1,7.8,1.8,7.9,1.8l2.6-1l-2.1,1.9c-1.2,1.1-4.1,4.3-3.5,6.1c0.3,0.9,1.4,1.4,3.2,1.7c8,1,14-7.4,14.1-7.5l0.8,0.6
			C1012.2,643.7,1006.8,651.3,998.9,651.3z"/>
		<path class="st5" d="M1061.2,599.6l-3-6.4l0-0.2c0.1-0.4,1.8-8.9,5.9-11.2c1.1-0.6,2.3-0.7,3.6-0.3l-0.3,0.9
			c-1-0.3-1.9-0.3-2.8,0.2c-3.4,1.9-5.1,9.2-5.4,10.3l2.9,6.1L1061.2,599.6z"/>
		<path class="st5" d="M1069.5,594.6l-1-0.1c0.4-3.3-0.1-5.3-1.3-6c-2.1-1.2-6.3,1.1-7.7,2.2l-0.6-0.8c0.2-0.2,5.7-4.1,8.8-2.2
			C1069.4,588.6,1070,590.9,1069.5,594.6z"/>
		<path class="st12" d="M1019.7,672.2c0,0,0,0.2,0,0.6c-0.2,0.2-0.4,0.3-0.4,0.3L1019.7,672.2z"/>
		<path class="st12" d="M1056.5,629c0,0-0.2,41.9-9,65.5c-6.5,6.2-12.1,10.2-14.6,10.1c-6.3-0.4-11.7-22.7-13.2-29.6v0
			c0-1,0-1.8,0-2.3C1023.3,670.3,1051,650.1,1056.5,629z"/>
		<path class="st8" d="M915.1,753.9l72.3,84.4C987.4,838.3,953.4,765.4,915.1,753.9z"/>
		<path class="st8" d="M1250.4,759.4c0,0-97.9-0.9-97.9-1.7c0-0.8,43.7,8.4,64.3,10C1237.5,769.2,1250.4,759.4,1250.4,759.4z"/>
	</g>
	<path class="st2" d="M765.9,1527.4l-46-21.4l12.3,24.5c0,0-49,15.3-36.8,16.9c12.3,1.5,47.5,1.5,47.5,1.5l-30.6,52.1l49-27.6
		c0,0,18.4,61.3,21.4,46c3.1-15.3,4.6-42.9,4.6-42.9l85.8,35.2l-32.2-26l121-7.7l-73.5-13.8l55.1-35.2l-85.8,29.1l26-23.7l-65.9,36
		l-31.4-47.5l-29.9-46.7L765.9,1527.4z"/>
	<path class="st3" d="M817.3,1572.9l-1-1.6l-315.6-511.7c-0.6-0.9-0.3-2.2,0.7-2.8c0.9-0.6,2.2-0.3,2.8,0.7l314.6,510l948.1-529.1
		c1-0.5,2.2-0.2,2.7,0.8s0.2,2.2-0.8,2.7L817.3,1572.9z"/>
	<path class="st3" d="M820.4,1520.8l-259.9-410.6c-0.6-0.9-0.3-2.2,0.6-2.8c0.9-0.6,2.2-0.3,2.8,0.6l257.9,407.4l736.7-417.3
		c1-0.5,2.2-0.2,2.7,0.8c0.5,1,0.2,2.2-0.8,2.7L820.4,1520.8z"/>
</g>
</svg>
